<?xml version="1.0" encoding="utf-8"?>
<!-- Generator: Adobe Illustrator 19.0.0, SVG Export Plug-In . SVG Version: 6.00 Build 0)  -->
<svg version="1.1" id="Layer_1" xmlns="http://www.w3.org/2000/svg" xmlns:xlink="http://www.w3.org/1999/xlink" x="0px" y="0px"
	 viewBox="0 0 300 300" style="enable-background:new 0 0 300 300;" xml:space="preserve">
<style type="text/css">
	.st0{fill-rule:evenodd;clip-rule:evenodd;fill:url(#SVGID_1_);}
	.st1{fill-rule:evenodd;clip-rule:evenodd;fill:url(#SVGID_2_);}
	.st2{fill-rule:evenodd;clip-rule:evenodd;fill:url(#SVGID_3_);}
	.st3{fill-rule:evenodd;clip-rule:evenodd;fill:url(#SVGID_4_);}
	.st4{fill-rule:evenodd;clip-rule:evenodd;fill:url(#SVGID_5_);}
	.st5{fill-rule:evenodd;clip-rule:evenodd;fill:url(#SVGID_6_);}
	.st6{fill-rule:evenodd;clip-rule:evenodd;fill:url(#SVGID_7_);}
	.st7{fill-rule:evenodd;clip-rule:evenodd;fill:url(#SVGID_8_);}
	.st8{fill-rule:evenodd;clip-rule:evenodd;fill:url(#SVGID_9_);}
	.st9{fill-rule:evenodd;clip-rule:evenodd;fill:url(#SVGID_10_);}
	.st10{fill-rule:evenodd;clip-rule:evenodd;fill:url(#SVGID_11_);}
	.st11{fill-rule:evenodd;clip-rule:evenodd;fill:url(#SVGID_12_);}
	.st12{fill-rule:evenodd;clip-rule:evenodd;fill:url(#SVGID_13_);}
	.st13{fill-rule:evenodd;clip-rule:evenodd;fill:url(#SVGID_14_);}
	.st14{fill-rule:evenodd;clip-rule:evenodd;fill:url(#SVGID_15_);}
	.st15{fill-rule:evenodd;clip-rule:evenodd;fill:url(#SVGID_16_);}
	.st16{fill-rule:evenodd;clip-rule:evenodd;fill:url(#SVGID_17_);}
	.st17{fill-rule:evenodd;clip-rule:evenodd;fill:url(#SVGID_18_);}
	.st18{fill-rule:evenodd;clip-rule:evenodd;fill:url(#SVGID_19_);}
	.st19{fill-rule:evenodd;clip-rule:evenodd;fill:url(#SVGID_20_);}
	.st20{fill-rule:evenodd;clip-rule:evenodd;fill:url(#SVGID_21_);}
	.st21{fill-rule:evenodd;clip-rule:evenodd;fill:url(#SVGID_22_);}
	.st22{fill-rule:evenodd;clip-rule:evenodd;fill:url(#SVGID_23_);}
	.st23{fill-rule:evenodd;clip-rule:evenodd;fill:url(#SVGID_24_);}
	.st24{fill-rule:evenodd;clip-rule:evenodd;fill:url(#SVGID_25_);}
	.st25{fill-rule:evenodd;clip-rule:evenodd;fill:url(#SVGID_26_);}
	.st26{fill-rule:evenodd;clip-rule:evenodd;fill:url(#SVGID_27_);}
	.st27{fill-rule:evenodd;clip-rule:evenodd;fill:url(#SVGID_28_);}
	.st28{fill-rule:evenodd;clip-rule:evenodd;fill:url(#SVGID_29_);}
	.st29{fill-rule:evenodd;clip-rule:evenodd;fill:url(#SVGID_30_);}
	.st30{fill-rule:evenodd;clip-rule:evenodd;fill:url(#SVGID_31_);}
	.st31{fill-rule:evenodd;clip-rule:evenodd;fill:url(#SVGID_32_);}
</style>
<g>
	<g>
		<radialGradient id="SVGID_1_" cx="154.5947" cy="91.5686" r="117.5114" gradientUnits="userSpaceOnUse">
			<stop  offset="0" style="stop-color:#0E0300"/>
			<stop  offset="0.7" style="stop-color:#EA0A5D"/>
			<stop  offset="1" style="stop-color:#AC063A"/>
		</radialGradient>
		<path class="st0" d="M149.4,143.6c-19.5-6.3-30.5-29.4-38-48.5c-6.3-16.2-13-37-4.2-52.1c13.3-22.7,47.8-22,71.7-33
			c11.9,1.6,18.3,15.5,27.4,23.2c8.7,7.3,21.2,11.6,26,21.8c6.1,12.9,7.9,30.5,0.7,42.9C217.1,125.4,171.2,150.7,149.4,143.6z"/>
		<radialGradient id="SVGID_2_" cx="86.4539" cy="127.8262" r="123.2586" gradientUnits="userSpaceOnUse">
			<stop  offset="0" style="stop-color:#0E0300"/>
			<stop  offset="0.61" style="stop-color:#EA0A5D"/>
			<stop  offset="1" style="stop-color:#AC063A"/>
		</radialGradient>
		<path class="st1" d="M121.3,141.5c-12.3,9.9-41.3,9.5-63.3,7.7c-12.1-1-18.3-16.3-28.8-22.5c-4.6-2.7-11.5-2.1-14.8-6.3
			C4.9,108,10.1,89.5,8,74c4.6-6.7,16.1-3.1,23.9-5.6c15.4-4.9,29-20.9,45-18.3c20.5,3.4,45.7,20.1,47.1,40.8
			C125.2,107.3,128.1,131.1,121.3,141.5z"/>
		<radialGradient id="SVGID_3_" cx="181.3096" cy="142.2304" r="154.0934" gradientUnits="userSpaceOnUse">
			<stop  offset="0" style="stop-color:#0E0300"/>
			<stop  offset="0.65" style="stop-color:#EA0A5D"/>
			<stop  offset="1" style="stop-color:#AC063A"/>
		</radialGradient>
		<path class="st2" d="M167,160.5c0.6-17.6,10.3-35.1,22.5-47.8c17-17.8,43.6-23,65.4-34.5C266.4,79,276,89.5,283,98.6
			c6.3,8.2,7.5,19.2,11.2,28.8c2,16.9-2.7,34.2-7,50.6c-2.6,9.8-4.2,20.9-11.3,28.1c-12.6,12.9-31.9,22.1-49.9,21.1
			c-16.2-1-31.6-11.7-42.2-23.9C173.8,191.8,166.5,175.9,167,160.5z"/>
		<radialGradient id="SVGID_4_" cx="145.7972" cy="200.3647" r="133.464" gradientUnits="userSpaceOnUse">
			<stop  offset="0" style="stop-color:#0E0300"/>
			<stop  offset="0.55" style="stop-color:#EA0A5D"/>
			<stop  offset="1" style="stop-color:#AC063A"/>
		</radialGradient>
		<path class="st3" d="M157.1,164.7c-15.1,10-24.2,27-35.2,41.5c-7.9,10.4-18.4,19.8-21.8,32.3c-1.9,7,0.9,14.5,1.4,21.8
			c3.6,6.6,11.7,9.8,18.3,13.4c10.6,5.7,21.9,10.7,33.8,12.7c13.9,2.3,28.9,3.1,42.2-1.4c6.8-2.3,10.8-10.1,17.6-12.7
			c3.7-1.5,8-1,11.9-1.4c7.6-5.8,8-17.5,10.6-26.7c4.2-15.1,8.5-30.8,7.7-46.4c-0.8-16.2-8.4-31.4-12.7-47.1
			c-11.6-8-28.3,1.4-42.2,4.2C178,157.1,166.3,158.6,157.1,164.7z"/>
		<radialGradient id="SVGID_5_" cx="96.3445" cy="137.7396" r="111.1216" gradientUnits="userSpaceOnUse">
			<stop  offset="0" style="stop-color:#0E0300"/>
			<stop  offset="0.68" style="stop-color:#EA0A5D"/>
			<stop  offset="1" style="stop-color:#AC063A"/>
		</radialGradient>
		<path class="st4" d="M120.5,178.8c-7.9-9.4-18.1-16.7-27.4-24.6c-14-11.9-24.6-32.5-42.9-34.5c-8.9-0.9-16.2,7.4-23.9,12
			c-3.2,1.9-6.1,4.2-9.1,6.3c-3.5,5.4-2.1,12.7-3.5,19c-1.4,6.4-6,12.5-4.9,19c0.7,4.7,6,7.5,7.7,12c1.5,3.8,1.4,8,2.1,12
			c5.3,6.2,16.6,3,23.2,7.7c5.3,3.8,6.7,11.7,12,15.5c14.5,10.3,32.9,15.8,50.6,16.9c17.2,1,33.8-7.1,50.6-10.6
			c5.8-4.7,11.4-13.3,9.1-20.4c-4.6-14.2-27.9-12.2-38.7-22.5C123.3,184.4,122.5,181.1,120.5,178.8z"/>
		<radialGradient id="SVGID_6_" cx="127.1092" cy="123.4516" r="162.724" gradientUnits="userSpaceOnUse">
			<stop  offset="0" style="stop-color:#0E0300"/>
			<stop  offset="0.53" style="stop-color:#EA0A5D"/>
			<stop  offset="1" style="stop-color:#AC063A"/>
		</radialGradient>
		<path class="st5" d="M132.5,156.3c-26.6,7.6-63.8,3.4-80.9-18.3c-10.8-13.6-2-34.9,0.7-52c2.1-13.3,8-25.8,12-38.7
			c3-3.4,8.9-2.9,12.6-5.6c6-4.4,9.9-11.3,14.8-16.9c5.2-1.7,10.7,2.8,16.2,3.5c4.9,0.7,10-0.5,14.8,0.7
			c11.3,2.8,22.6,7.4,31.7,14.8c16.8,13.8,40.4,31,38.7,52.8C190.8,124.8,159.8,148.5,132.5,156.3z"/>
		<radialGradient id="SVGID_7_" cx="172.5166" cy="115.8631" r="120.2267" gradientUnits="userSpaceOnUse">
			<stop  offset="0" style="stop-color:#0E0300"/>
			<stop  offset="0.52" style="stop-color:#EA0A5D"/>
			<stop  offset="1" style="stop-color:#AC063A"/>
		</radialGradient>
		<path class="st6" d="M165.6,155.6c5.6-11.7,8.6-24.8,15.5-35.9c9.2-14.8,16.9-35.5,33.8-40.1c9.6-2.6,20.8,3.2,28.1,9.8
			c7.3,6.6,8.4,17.8,12.7,26.7c-0.9,2.5-5.4,1.5-7,3.5c-8.2,10.6-5.6,26.3-8.4,39.4c-8.5,15-22.6,27.3-38,35.2
			c-19.4,9.9-42.2,18.3-64,12.7C126.6,191.3,157.2,173.1,165.6,155.6z"/>
		<linearGradient id="SVGID_8_" gradientUnits="userSpaceOnUse" x1="219.5134" y1="221.7884" x2="190.5024" y2="175.1912">
			<stop  offset="0" style="stop-color:#FFFFFF"/>
			<stop  offset="1" style="stop-color:#E4075E"/>
		</linearGradient>
		<path class="st7" d="M146.7,203.3c-7.3-4.4,17-3.9,44.5-26.9c16.6-13.9,20.4-19.7,33.5-23.4c3.9-1.1,14.9-7.7,12.1,0.8
			c-5,15-18.7,25.2-31.9,33.1C187.6,197.2,157.1,209.6,146.7,203.3z"/>
		<radialGradient id="SVGID_9_" cx="134.7203" cy="153.6571" r="132.2208" gradientUnits="userSpaceOnUse">
			<stop  offset="0" style="stop-color:#0E0300"/>
			<stop  offset="0.67" style="stop-color:#EA0A5D"/>
			<stop  offset="1" style="stop-color:#AC063A"/>
		</radialGradient>
		<path class="st8" d="M129,193.6c-4.8,5.4-13.3,7.8-20.4,7c-14.5-1.6-27.8-12-37.3-23.2C61,165.2,56.4,148.7,53,133.1
			c-2.7-12.1-1-24.9-1.4-37.3c2.2-3.3,8.1-1.8,11.2-4.2c7-5.3,7.8-17,15.5-21.1c10.8-5.7,26-7.5,36.6-1.4
			c17.9,10.4,26,34.4,28.9,54.9C147,147.4,144.7,175.8,129,193.6z"/>
		<radialGradient id="SVGID_10_" cx="147.0337" cy="123.7765" r="131.4561" gradientUnits="userSpaceOnUse">
			<stop  offset="0" style="stop-color:#0E0300"/>
			<stop  offset="0.56" style="stop-color:#EA0A5D"/>
			<stop  offset="1" style="stop-color:#AC063A"/>
		</radialGradient>
		<path class="st9" d="M140.2,156.3c-11-18.4-15.5-41.2-14.8-62.6c0.5-13.5,2.5-29.1,12-38.7c9.2-9.3,24.2-11.8,37.3-12
			c14.7-0.1,28.1,8.4,42.2,12.7c2.2,2.8,0.6,7,0.7,10.5c0.6,13.1,3.3,26.5,0.7,39.4c-3.6,17.8-10.2,36-21.8,49.9
			c-8.3,10-19.4,22.6-32.3,21.8C153.5,176.7,145.7,165.4,140.2,156.3z"/>
		<radialGradient id="SVGID_11_" cx="138.1429" cy="137.2283" r="148.7939" gradientUnits="userSpaceOnUse">
			<stop  offset="0" style="stop-color:#0E0300"/>
			<stop  offset="0.44" style="stop-color:#EA0A5D"/>
			<stop  offset="1" style="stop-color:#AC063A"/>
		</radialGradient>
		<path class="st10" d="M132.3,172.9c-21.4-1.6-43-20.5-49.7-40.9C79.1,121.4,87,110,91,99.5c2.6-6.8,5.3-13.9,10.1-19.3
			c9.7-10.9,22.3-19.9,36-24.6c9-3.1,19-1.2,28.6-1.8c12.9,5.8,21,20.3,26.4,33.4c5.9,14.6,11.9,33,4.8,47
			C185.7,156.7,157.3,174.8,132.3,172.9z"/>
		<radialGradient id="SVGID_12_" cx="133.4636" cy="113.8405" r="88.4455" gradientUnits="userSpaceOnUse">
			<stop  offset="0" style="stop-color:#0E0300"/>
			<stop  offset="0.37" style="stop-color:#EA0A5D"/>
			<stop  offset="1" style="stop-color:#AC063A"/>
		</radialGradient>
		<path class="st11" d="M136.3,143.1c-13,0.1-28.7-8.5-33.1-20.8c-3.5-9.9,3.3-21.9,10.2-29.8c8.7-9.8,23.7-11.4,35.6-17.1
			c8.1,1.8,12.5,11.7,15.8,19.3c3.7,8.5,7.4,19.3,3.5,27.7C163,133.9,149,143,136.3,143.1z"/>
		<radialGradient id="SVGID_13_" cx="136.0931" cy="118.0972" r="43.5031" gradientUnits="userSpaceOnUse">
			<stop  offset="0" style="stop-color:#0E0300"/>
			<stop  offset="0.63" style="stop-color:#EA0A5D"/>
			<stop  offset="1" style="stop-color:#AC063A"/>
		</radialGradient>
		<path class="st12" d="M129.2,134.3c-6-0.2-12.5-4.7-14.8-10.2c-3.1-7.6,3-16.2,4.6-24.3c2.6-5.2,6.5-15.7,11.6-13
			c6,3.2,14.1,3.2,18.3,8.4c5.2,6.3,8.8,16.4,5.6,23.9C150.7,128.2,139,134.6,129.2,134.3z"/>
		<radialGradient id="SVGID_14_" cx="139.1405" cy="117.8198" r="36.7051" gradientUnits="userSpaceOnUse">
			<stop  offset="0" style="stop-color:#0E0300"/>
			<stop  offset="0.64" style="stop-color:#EA0A5D"/>
			<stop  offset="1" style="stop-color:#AC063A"/>
		</radialGradient>
		<path class="st13" d="M134.5,125.9c-5.8-1-5.7-10.7-6.3-16.5c-0.5-4.1-0.7-8.9,1.7-12.3c1.8-2.5,5.6-2.8,8.4-4.2
			c6.2,1.9,10.1,10.4,9.5,16.9C147.2,116.7,141.4,127,134.5,125.9z"/>
		<radialGradient id="SVGID_15_" cx="141.4451" cy="104.3454" r="25.4713" gradientUnits="userSpaceOnUse">
			<stop  offset="0" style="stop-color:#D7074F"/>
			<stop  offset="0.48" style="stop-color:#992041"/>
			<stop  offset="1" style="stop-color:#0E0300"/>
		</radialGradient>
		<path class="st14" d="M134.5,125.9c-5.8-1,14.8-22.5,3.9-33c6.2,1.9,11,10,10.5,16.5C148.3,116.6,141.4,127,134.5,125.9z"/>
		<radialGradient id="SVGID_16_" cx="128.3" cy="103.459" r="44.3546" gradientUnits="userSpaceOnUse">
			<stop  offset="0" style="stop-color:#D7074F"/>
			<stop  offset="0.48" style="stop-color:#992041"/>
			<stop  offset="1" style="stop-color:#0E0300"/>
		</radialGradient>
		<path class="st15" d="M129.2,134.3c-6-0.2-12.3-4.7-14.8-10.2c-3.3-7.6,1.7-16.5,3.2-24.6c2.7-5.4,7.9-15.4,13-12.7
			c-22.5,23.2,25.3,27.4,23.9,32.3C150.7,128.2,139,134.6,129.2,134.3z"/>
		<radialGradient id="SVGID_17_" cx="156.6196" cy="90.2892" r="72.5182" gradientUnits="userSpaceOnUse">
			<stop  offset="0" style="stop-color:#D7074F"/>
			<stop  offset="0.46" style="stop-color:#992041"/>
			<stop  offset="1" style="stop-color:#0E0300"/>
		</radialGradient>
		<path class="st16" d="M136.3,144.8c-7,0-13.1-5.3-18.4-10c17-1.5,54.3-26.5,31.2-59.4c8.1,1.8,12.9,11.4,16.4,18.9
			c4.6,10,9.9,22.8,5,32.6C164.6,138.3,149.1,144.9,136.3,144.8z"/>
		<radialGradient id="SVGID_18_" cx="132.6977" cy="120.7516" r="64.6086" gradientUnits="userSpaceOnUse">
			<stop  offset="0" style="stop-color:#D7074F"/>
			<stop  offset="0.48" style="stop-color:#992041"/>
			<stop  offset="1" style="stop-color:#0E0300"/>
		</radialGradient>
		<path class="st17" d="M118.3,167.7c-11.7-1.2-20.8-15.2-23.2-26.7c-1.7-7.8,4.7-15.2,7.1-22.9c3.1-0.7,3.3,6.3,6.3,7
			c9.7,2.5,21.2,3.3,31.6,4.2c11.7,1,23.2-3.5,34.8-5.3C184.2,146,142,170.1,118.3,167.7z"/>
		<radialGradient id="SVGID_19_" cx="138.1408" cy="128.7809" r="75.4537" gradientUnits="userSpaceOnUse">
			<stop  offset="0" style="stop-color:#D7074F"/>
			<stop  offset="0.48" style="stop-color:#992041"/>
			<stop  offset="1" style="stop-color:#0E0300"/>
		</radialGradient>
		<path class="st18" d="M158,181.4c13.9-2.4,24-18.9,26.7-32.7c2-10.5-6.4-20.4-9.5-30.6c-4.6,11.3-6.3,14.5-12.3,19
			c-8.3,6.2-19.5,8-29.9,8.8c-14.6,1.1-29.1-3.7-43.6-5.6C80.7,165.5,131.8,186,158,181.4z"/>
		<radialGradient id="SVGID_20_" cx="133.8364" cy="144.8599" r="75.6017" gradientUnits="userSpaceOnUse">
			<stop  offset="0" style="stop-color:#D7074F"/>
			<stop  offset="0.48" style="stop-color:#992041"/>
			<stop  offset="1" style="stop-color:#0E0300"/>
		</radialGradient>
		<path class="st19" d="M131.6,200.8c-8.3,3.5-21.2-1.7-28.5-8.4c-13.1-12.1-12.9-33.3-19.3-49.9c4.8-3.8,9.7,7.7,15.1,10.5
			c6.6,3.5,13.5,6.6,20.8,8.1c10.1,2,20.7,2.2,31,0.7c9.9-1.4,20-4,28.5-9.1c3.7-2.3,6.1-6.1,9.1-9.1c10.7,8-10.1,25.6-19.4,35.2
			C158.9,189,146.8,194.5,131.6,200.8z"/>
		<radialGradient id="SVGID_21_" cx="121.0117" cy="114.0495" r="38.5464" gradientUnits="userSpaceOnUse">
			<stop  offset="0" style="stop-color:#E60856"/>
			<stop  offset="0.62" style="stop-color:#FC6CCB"/>
			<stop  offset="1" style="stop-color:#E60856"/>
		</radialGradient>
		<path class="st20" d="M98.3,114.6c-0.4-3.8,0.8-8.2,3.5-11c1.4-1.4,4.5-3.6,5.7-2c-0.2,1.5-1.9,2.2-2.2,3.5
			c-1.2,5.5-1.6,12.5,2,16.9c1.5,1.8,4.5,1.6,6.8,2.2c3,0.8,5.9,1.8,9,2.2c10.1,1.2,20.3,0.6,30.3-0.2c3.2-0.3,6.4-1.1,9.7-1.5
			c4-0.6,7.9-1,11.9-1.6c0.8,3-5.8,2.4-8.8,3.3c-5,1.4-10.2,2.4-15.4,3.1c-6.6,0.8-13.3,1.6-20,1.1c-4.2-0.3-8.2-1.7-12.3-2.7
			c-4.8-1-10.4-0.4-14.3-3.3C101.1,122.4,98.8,118.5,98.3,114.6z"/>
		<radialGradient id="SVGID_22_" cx="149.5675" cy="119.8675" r="51.577" gradientUnits="userSpaceOnUse">
			<stop  offset="0" style="stop-color:#E60856"/>
			<stop  offset="0.62" style="stop-color:#FC6CCB"/>
			<stop  offset="1" style="stop-color:#E60856"/>
		</radialGradient>
		<path class="st21" d="M178.1,98.1c-2.2-2.3-6.6-4-9.2-2.2c-2,1.4-1.2,4.8-1.1,7.3c0.2,6,4.2,11.6,3.7,17.6
			c-0.3,4.1-1.8,8.3-4.4,11.4c-1.7,2-4.2,3.2-6.6,4.4c-3.7,1.9-7.6,3.3-11.7,4.4c-4.5,1.2-9.2,2-13.8,2.2
			c-6.2,0.3-12.5-0.4-18.7-1.1c-5-0.6-9.8-2.3-14.7-2.4c-4.2-0.1-8.4,0.9-12.5,1.3c-0.2,3.2,6.1,1.6,9.2,2.2
			c5.3,1.1,10.7,2.1,16.1,2.9c4.6,0.6,9.2,1.5,13.8,1.5c4.2,0,8.4-1.2,12.5-1.3c2.1-0.1,4.3,0.6,6.4,0.2c4.2-0.8,8-3.1,11.6-5.3
			c3.5-2,6.4-4.9,9.7-7.3c2.7-2,6.4-3,8.1-5.9c1.3-2.1,0.4-5.1,1.1-7.5c0.8-2.7,3.4-4.9,3.7-7.7C182,107.9,181.7,101.7,178.1,98.1z"
			/>
		<radialGradient id="SVGID_23_" cx="128.4162" cy="132.5488" r="58.0033" gradientUnits="userSpaceOnUse">
			<stop  offset="0" style="stop-color:#E60856"/>
			<stop  offset="0.62" style="stop-color:#FC6CCB"/>
			<stop  offset="1" style="stop-color:#E60856"/>
		</radialGradient>
		<path class="st22" d="M78.1,141.2c0.8,3.4,4.4,5.4,6.8,7.9c3.8,3.8,8.1,7.2,12.1,10.8c3.6,1.5,7.9-0.3,11.7,0.7
			c3.4,0.8,6.3,2.8,9.4,4.2c2.7,0.3,5.2-1.6,7.9-1.7c4.1-0.2,8,1.4,12.1,1.5c5.9,0.1,11.9-0.6,17.8-1.5c6.3-1,12.7-2.2,18.7-4.4
			c4-1.5,8.1-3.2,11.4-5.9c3.1-2.6,6.1-5.7,7.5-9.4c0.4-1.3,1-3.1,0-4c-1.2-1-3,0.2-4.4,0.9c-5.5,2.7-8.9,8.6-14.1,11.9
			c-3.2,2-6.7,3.7-10.3,4.8c-2.3,0.7-4.8,0.7-7.2,1.1c-5,0.8-9.9,2.5-14.9,2.8c-6,0.4-12.1,0-18-1.1c-4.7-0.8-9.6-1.8-13.8-4.2
			c-5.4-3-9.2-8.1-13.8-12.1c-5.3-4.5-10.7-8.8-16.1-13.2C77.2,131.4,77.2,137.6,78.1,141.2z"/>
		<linearGradient id="SVGID_24_" gradientUnits="userSpaceOnUse" x1="-12.7584" y1="152.7059" x2="37.3413" y2="157.7955">
			<stop  offset="0" style="stop-color:#FFFFFF"/>
			<stop  offset="1" style="stop-color:#E4075E"/>
		</linearGradient>
		<path class="st23" d="M36,129.7c-5.3,0.7-13.1,3.4-16.9,8.4c-4.5,5.9-2.4,14.6-4.2,21.8c-0.8,3.2-3.5,6.2-3.2,9.5
			c0.6,5.7,3.2,13.5,8.8,14.8c3.4,0.7,11.5-0.2,16.2-2.8c4.9-2.7-11.5-13.8-8.4-27.4C30.1,145.7,45,128.5,36,129.7z"/>
		<linearGradient id="SVGID_25_" gradientUnits="userSpaceOnUse" x1="87.6667" y1="259.8037" x2="96.4541" y2="209.7972">
			<stop  offset="0" style="stop-color:#FFFFFF"/>
			<stop  offset="1" style="stop-color:#EA0A58"/>
		</linearGradient>
		<path class="st24" d="M57.6,205c0.5,6,13.8,12.9,22.5,15.9c10.9,3.7,23.1,1.7,34.6,1.7c14.4-0.1,23.8-9.4,20-10
			c-10.9-1.8-32.9,0.4-49.2-1.6C76.2,209.9,56.8,195.5,57.6,205z"/>
		<linearGradient id="SVGID_26_" gradientUnits="userSpaceOnUse" x1="265.4066" y1="259.1987" x2="210.0611" y2="227.952">
			<stop  offset="0" style="stop-color:#FFFFFF"/>
			<stop  offset="1" style="stop-color:#EA0A58"/>
		</linearGradient>
		<path class="st25" d="M217.7,260.4c-4.9-1.4-15.8,2.6-18.4-3c-3.9-8.2,15.8-18.5,19.2-36.6c2.3-12.1,2.6-22.5,9.1-19.3
			c7.4,3.5,4.3,20.3,2.7,30.3C228.6,242,226.9,255.4,217.7,260.4z"/>
		<linearGradient id="SVGID_27_" gradientUnits="userSpaceOnUse" x1="162.5417" y1="318.6375" x2="165.3484" y2="265.5382">
			<stop  offset="0" style="stop-color:#FFFFFF"/>
			<stop  offset="1" style="stop-color:#EA0A58"/>
		</linearGradient>
		<path class="st26" d="M193.4,262.2c3.4,3.6,0.2,11.5-3.9,14.3c-14.5,10.1-47.2,3.3-52.7-5c-6.5-9.7,18.1-2.7,29.7-3.7
			C184.8,266.5,187.1,255.5,193.4,262.2z"/>
		<linearGradient id="SVGID_28_" gradientUnits="userSpaceOnUse" x1="44.8051" y1="61.4859" x2="79.429" y2="91.4321">
			<stop  offset="0" style="stop-color:#FFFFFF"/>
			<stop  offset="1" style="stop-color:#EA0A58"/>
		</linearGradient>
		<path class="st27" d="M56.3,95.4c1.6-2.7,6.2-1,8.7-2.9c6.2-4.7,6.6-15,12.9-19.5c6.8-4.9,14.3-6.3,24.2-6.6
			c-6.3,3.6-14.3,4.7-19.8,9.7c-6.1,5.6-7.4,16.5-13.2,21.2c-9.3,7.4-8,23.2-14.1,17.5C52,112,52.8,101.3,56.3,95.4z"/>
		<linearGradient id="SVGID_29_" gradientUnits="userSpaceOnUse" x1="62.5323" y1="25.3128" x2="77.4798" y2="55.2009">
			<stop  offset="0" style="stop-color:#FFFFFF"/>
			<stop  offset="1" style="stop-color:#EA0A58"/>
		</linearGradient>
		<path class="st28" d="M94.5,25.7c3.5,1.3,5.3,9.2,4.1,13.8c-5,18.7-33.2,20.7-42,40c-2-1.3,6.4-19.5,9.7-31.4
			c1.2-4.4,8.9-2.6,12.3-5.5C90.9,31.8,89.6,23.9,94.5,25.7z"/>
		<linearGradient id="SVGID_30_" gradientUnits="userSpaceOnUse" x1="134.6644" y1="14.5497" x2="134.0012" y2="70.6373">
			<stop  offset="0" style="stop-color:#FFFFFF"/>
			<stop  offset="1" style="stop-color:#EA0A58"/>
		</linearGradient>
		<path class="st29" d="M163.4,55.1c-5.8,2.9-10.9-1.8-18.2-0.5c-18.7,3.6-37.9,16.6-44.9,30c17.8-15.7,44-22.6,64.9-18.5
			C168.8,66.9,168.5,52.6,163.4,55.1z"/>
		<linearGradient id="SVGID_31_" gradientUnits="userSpaceOnUse" x1="199.6247" y1="15.978" x2="179.5711" y2="58.5632">
			<stop  offset="0" style="stop-color:#FFFFFF"/>
			<stop  offset="1" style="stop-color:#EA0A58"/>
		</linearGradient>
		<path class="st30" d="M204.2,71.4c4.4,5.1,14-11.8,12.4-14.3c-7.7-0.6-19-11.5-39-13.5c-10.7-1-25,2.5-31.6,6.3
			C168.2,45.6,193.2,58.8,204.2,71.4z"/>
		<linearGradient id="SVGID_32_" gradientUnits="userSpaceOnUse" x1="298.1486" y1="86.6943" x2="233.0363" y2="99.8823">
			<stop  offset="0" style="stop-color:#FFFFFF"/>
			<stop  offset="1" style="stop-color:#EA0A58"/>
		</linearGradient>
		<path class="st31" d="M253.6,115.5c-3.3,0.8-16-2.6-16.2-7c-0.6-12.6-4.7-17.6-12.9-26.7c6.9-1.1,20.5,7.2,23.6,16
			C252.9,110.9,255.5,115,253.6,115.5z"/>
	</g>
</g>
</svg>
