<?xml version="1.0" encoding="UTF-8" standalone="no"?>
<svg
   xmlns:dc="http://purl.org/dc/elements/1.1/"
   xmlns:cc="http://creativecommons.org/ns#"
   xmlns:rdf="http://www.w3.org/1999/02/22-rdf-syntax-ns#"
   xmlns:svg="http://www.w3.org/2000/svg"
   xmlns="http://www.w3.org/2000/svg"
   version="1.1"
   id="svg5977"
   viewBox="0 0 410 85"
   height="85"
   width="410">
  <defs
     id="defs5979">
    <clipPath
       id="clipPath26"
       clipPathUnits="userSpaceOnUse">
      <path
         id="path28"
         d="m 0,1534 1024,0 L 1024,0 0,0 0,1534 Z" />
    </clipPath>
  </defs>
  <metadata
     id="metadata5982">
    <rdf:RDF>
      <cc:Work
         rdf:about="">
        <dc:format>image/svg+xml</dc:format>
        <dc:type
           rdf:resource="http://purl.org/dc/dcmitype/StillImage" />
        <dc:title></dc:title>
      </cc:Work>
    </rdf:RDF>
  </metadata>
  <g
     transform="translate(0,-967.3622)"
     id="layer1">
    <g
       transform="matrix(1.25,0,0,-1.25,20.713269,972.913)"
       id="g18">
      <path
         id="path20"
         style="fill:#f70b7b;fill-opacity:1;fill-rule:nonzero;stroke:none"
         d="m 0,0 0,-18.516 10.331,9.932 13.724,0 -8.185,-7.736 11.828,-17.018 -13.874,0 -6.637,9.682 -7.187,-6.987 0,-2.695 -13.375,0 0,33.338 L 0,0 Z" />
    </g>
    <g
       id="g22"
       transform="matrix(1.25,0,0,-1.25,-131.00587,2860.413)">
      <g
         clip-path="url(#clipPath26)"
         id="g24">
        <g
           transform="translate(169.9288,1483.1998)"
           id="g30">
          <path
             id="path32"
             style="fill:#f70b7b;fill-opacity:1;fill-rule:nonzero;stroke:none"
             d="M 0,0 2.645,0 C 5.34,0 6.688,0.798 7.237,1.796 l 0,2.795 C 6.738,4.292 5.44,3.893 3.244,3.893 l -3.194,0 C -2.146,3.893 -3.393,3.044 -3.393,1.846 -3.393,0.649 -2.195,0 0,0 m -4.84,8.484 7.835,0 c 2.944,0 4.092,0.599 4.092,1.547 0,0.899 -0.699,1.497 -2.645,1.497 l -8.234,0 c -3.395,0 -7.486,-1.048 -9.683,-2.395 l -3.942,6.687 c 1.398,1.198 6.887,2.396 14.124,2.396 l 13.624,0 c 7.686,0 10.48,-3.543 10.48,-8.185 l 0,-11.279 c 0,-1.896 0.65,-3.942 1.498,-5.091 l 0,-0.199 -13.325,0 c -0.4,0.749 -0.949,2.296 -1.148,3.394 l -0.2,0 C 6.738,-4.242 3.893,-6.538 -1.497,-6.538 l -5.69,0 c -5.789,0 -10.23,2.795 -10.23,7.636 0,4.991 5.091,7.386 12.577,7.386" />
        </g>
        <path
           id="path34"
           style="fill:#f70b7b;fill-opacity:1;fill-rule:nonzero;stroke:none"
           d="m 201.416,1510 11.379,0 0,-7.037 -11.379,0 0,7.037 z m 12.376,-8.584 0,-24.854 c 0,-6.388 -2.345,-8.734 -9.132,-8.734 l -2.246,0 c -4.043,0 -7.237,0.549 -10.031,1.747 l 3.793,6.837 0.199,0 c 0.35,-0.549 1.298,-0.898 2.046,-0.898 1.348,0 1.997,0.549 1.997,1.747 l 0,24.155 13.374,0 z" />
        <g
           transform="translate(236.1979,1501.8651)"
           id="g36">
          <path
             id="path38"
             style="fill:#f70b7b;fill-opacity:1;fill-rule:nonzero;stroke:none"
             d="m 0,0 11.328,0 c 5.441,0 11.03,-1.098 13.525,-2.046 L 21.56,-7.885 c -2.695,1.048 -5.989,1.497 -10.081,1.497 l -8.934,0 c -1.946,0 -2.446,-0.399 -2.446,-1.298 0,-0.748 0.5,-1.148 2.446,-1.148 l 10.68,0 c 8.884,0 13.126,-3.044 13.126,-8.484 0,-5.09 -4.542,-8.384 -13.975,-8.384 l -12.376,0 c -6.688,0 -12.128,0.948 -14.723,2.445 l 3.693,6.288 c 1.997,-1.447 5.49,-2.345 10.73,-2.345 l 10.381,0 c 2.046,0 2.645,0.449 2.645,1.297 0,0.899 -0.698,1.348 -2.645,1.348 l -10.93,0 c -8.284,0 -12.576,2.795 -12.576,8.185 C -13.425,-3.344 -9.532,0 0,0" />
        </g>
        <g
           transform="translate(286.199,1483.1998)"
           id="g40">
          <path
             id="path42"
             style="fill:#f70b7b;fill-opacity:1;fill-rule:nonzero;stroke:none"
             d="M 0,0 2.645,0 C 5.34,0 6.688,0.798 7.237,1.796 l 0,2.795 C 6.738,4.292 5.44,3.893 3.244,3.893 l -3.194,0 C -2.146,3.893 -3.393,3.044 -3.393,1.846 -3.393,0.649 -2.195,0 0,0 m -4.84,8.484 7.835,0 c 2.944,0 4.092,0.599 4.092,1.547 0,0.899 -0.699,1.497 -2.645,1.497 l -8.234,0 c -3.395,0 -7.486,-1.048 -9.683,-2.395 l -3.942,6.687 c 1.398,1.198 6.887,2.396 14.124,2.396 l 13.624,0 c 7.686,0 10.48,-3.543 10.48,-8.185 l 0,-11.279 c 0,-1.896 0.65,-3.942 1.498,-5.091 l 0,-0.199 -13.325,0 c -0.4,0.749 -0.949,2.296 -1.148,3.394 l -0.2,0 C 6.738,-4.242 3.893,-6.538 -1.497,-6.538 l -5.69,0 c -5.789,0 -10.23,2.795 -10.23,7.636 0,4.991 5.091,7.386 12.577,7.386" />
        </g>
        <g
           transform="translate(329.4133,1501.8651)"
           id="g44">
          <path
             id="path46"
             style="fill:#f70b7b;fill-opacity:1;fill-rule:nonzero;stroke:none"
             d="m 0,0 11.328,0 c 5.441,0 11.03,-1.098 13.525,-2.046 L 21.56,-7.885 c -2.695,1.048 -5.99,1.497 -10.081,1.497 l -8.934,0 c -1.946,0 -2.446,-0.399 -2.446,-1.298 0,-0.748 0.5,-1.148 2.446,-1.148 l 10.68,0 c 8.884,0 13.126,-3.044 13.126,-8.484 0,-5.09 -4.542,-8.384 -13.975,-8.384 l -12.376,0 c -6.688,0 -12.128,0.948 -14.723,2.445 l 3.693,6.288 c 1.997,-1.447 5.49,-2.345 10.73,-2.345 l 10.381,0 c 2.046,0 2.645,0.449 2.645,1.297 0,0.899 -0.698,1.348 -2.645,1.348 l -10.93,0 c -8.284,0 -12.576,2.795 -12.576,8.185 C -13.425,-3.344 -9.532,0 0,0" />
        </g>
        <g
           transform="translate(280.1223,1467.5479)"
           id="g48">
          <path
             id="path50"
             style="fill:#f70b7b;fill-opacity:1;fill-rule:nonzero;stroke:none"
             d="m 0,0 0,-3.719 0.142,0 c 3.082,2.408 7.332,4.073 11.123,4.073 3.4,0 5.101,-0.354 7.262,-1.239 l -3.223,-5.314 c -1.878,0.921 -3.933,1.381 -6.483,1.381 -2.905,0 -5.951,-0.956 -8.679,-2.479 l 0,-10.273 -9.494,0 0,17.57 L 0,0 Z" />
        </g>
        <g
           transform="translate(314.0631,1454.1575)"
           id="g52">
          <path
             id="path54"
             style="fill:#f70b7b;fill-opacity:1;fill-rule:nonzero;stroke:none"
             d="M 0,0 C 3.188,0 4.923,1.452 4.923,4.57 4.923,7.687 3.188,9.175 0,9.175 -3.189,9.175 -4.924,7.687 -4.924,4.57 -4.924,1.452 -3.082,0 0,0 m -0.709,13.709 1.417,0 c 9.317,0 14.028,-3.719 14.028,-9.139 0,-5.42 -4.711,-9.104 -14.028,-9.104 l -1.417,0 c -9.317,0 -14.028,3.684 -14.028,9.104 0,5.42 4.711,9.139 14.028,9.139" />
        </g>
        <g
           transform="translate(343.0089,1467.8665)"
           id="g56">
          <path
             id="path58"
             style="fill:#f70b7b;fill-opacity:1;fill-rule:nonzero;stroke:none"
             d="m 0,0 8.042,0 c 3.86,0 7.828,-0.779 9.599,-1.452 l -2.338,-4.145 c -1.913,0.744 -4.25,1.063 -7.156,1.063 l -6.341,0 c -1.381,0 -1.735,-0.283 -1.735,-0.921 0,-0.532 0.354,-0.815 1.735,-0.815 l 7.581,0 c 6.306,0 9.317,-2.161 9.317,-6.022 0,-3.614 -3.224,-5.951 -9.919,-5.951 l -8.785,0 c -4.747,0 -8.608,0.673 -10.45,1.736 l 2.622,4.463 c 1.416,-1.027 3.896,-1.665 7.615,-1.665 l 7.369,0 c 1.452,0 1.877,0.319 1.877,0.921 0,0.638 -0.496,0.956 -1.877,0.956 l -7.758,0 c -5.881,0 -8.927,1.984 -8.927,5.81 C -9.529,-2.373 -6.766,0 0,0" />
        </g>
        <g
           transform="translate(380.2804,1454.1575)"
           id="g60">
          <path
             id="path62"
             style="fill:#f70b7b;fill-opacity:1;fill-rule:nonzero;stroke:none"
             d="M 0,0 C 3.188,0 4.923,1.452 4.923,4.57 4.923,7.687 3.188,9.175 0,9.175 -3.189,9.175 -4.924,7.687 -4.924,4.57 -4.924,1.452 -3.082,0 0,0 m -0.709,13.709 1.417,0 c 9.317,0 14.028,-3.719 14.028,-9.139 0,-5.42 -4.711,-9.104 -14.028,-9.104 l -1.417,0 c -9.317,0 -14.028,3.684 -14.028,9.104 0,5.42 4.711,9.139 14.028,9.139" />
        </g>
        <g
           transform="translate(409.4747,1467.5479)"
           id="g64">
          <path
             id="path66"
             style="fill:#f70b7b;fill-opacity:1;fill-rule:nonzero;stroke:none"
             d="m 0,0 0,-3.719 0.142,0 c 3.082,2.408 7.332,4.073 11.123,4.073 3.4,0 5.101,-0.354 7.262,-1.239 l -3.223,-5.314 c -1.878,0.921 -3.933,1.381 -6.483,1.381 -2.905,0 -5.951,-0.956 -8.679,-2.479 l 0,-10.273 -9.494,0 0,17.57 L 0,0 Z" />
        </g>
      </g>
    </g>
  </g>
</svg>
